<?xml version="1.0" encoding="UTF-8"?>
<svg xmlns="http://www.w3.org/2000/svg" viewBox="0 0 512 512">
    <!-- Background Circle -->
    <circle cx="256" cy="256" r="256" fill="#001f3f"/>
    
    <!-- Shopping Bag (Font Awesome style) -->
    <g transform="translate(128, 128) scale(0.5)" fill="white">
        <path d="M352 160v-32C352 57.42 294.579 0 224 0S96 57.42 96 128v32H0v272c0 44.183 35.817 80 80 80h352c44.183 0 80-35.817 80-80V160H352zm-144-32c0-35.346 28.654-64 64-64s64 28.654 64 64v32H208v-32zm208 304c0 26.51-21.49 48-48 48H80c-26.51 0-48-21.49-48-48V192h64v48c0 8.837 7.163 16 16 16s16-7.163 16-16v-48h192v48c0 8.837 7.163 16 16 16s16-7.163 16-16v-48h64v272z"/>
    </g>
    
    <!-- Dollar Sign (Font Awesome style) -->
    <g transform="translate(256, 256) scale(0.4)" fill="white">
        <path d="M256 0C114.6 0 0 114.6 0 256s114.6 256 256 256s256-114.6 256-256S397.4 0 256 0zM256 464c-114.7 0-208-93.31-208-208S141.3 48 256 48s208 93.31 208 208S370.7 464 256 464zM296 336h-16V352c0 8.836-7.162 16-15.1 16S249 360.8 249 352V336H208c-8.836 0-15.1-7.162-15.1-16S199.2 304 208 304h41V208h-16c-8.836 0-15.1-7.162-15.1-16S224.2 176 233 176h16V160c0-8.836 7.162-16 15.1-16S280 151.2 280 160v16h40c8.836 0 15.1 7.162 15.1 16S328.8 208 320 208h-40v96h16c8.836 0 15.1 7.162 15.1 16S304.8 336 296 336z"/>
    </g>
</svg> 